<mxfile host="Electron" agent="Mozilla/5.0 (Windows NT 10.0; Win64; x64) AppleWebKit/537.36 (KHTML, like Gecko) draw.io/24.7.17 Chrome/128.0.6613.36 Electron/32.0.1 Safari/537.36" version="24.7.17" pages="4">
  <diagram name="Planning  Activity" id="Kh8elPg3qKsbvMbGEs8Y">
    <mxGraphModel dx="1034" dy="519" grid="1" gridSize="10" guides="1" tooltips="1" connect="1" arrows="1" fold="1" page="1" pageScale="1" pageWidth="850" pageHeight="1100" math="0" shadow="0">
      <root>
        <mxCell id="0" />
        <mxCell id="1" parent="0" />
        <mxCell id="JsCZ4UhAlphagn-gwIwT-14" value="" style="whiteSpace=wrap;html=1;aspect=fixed;" parent="1" vertex="1">
          <mxGeometry x="310" y="60" width="80" height="80" as="geometry" />
        </mxCell>
        <mxCell id="JsCZ4UhAlphagn-gwIwT-15" value="size estimation" style="text;html=1;align=center;verticalAlign=middle;whiteSpace=wrap;rounded=0;" parent="1" vertex="1">
          <mxGeometry x="320" y="85" width="60" height="30" as="geometry" />
        </mxCell>
        <mxCell id="JsCZ4UhAlphagn-gwIwT-16" value="development time" style="rounded=0;whiteSpace=wrap;html=1;" parent="1" vertex="1">
          <mxGeometry x="530" y="210" width="120" height="60" as="geometry" />
        </mxCell>
        <mxCell id="JsCZ4UhAlphagn-gwIwT-17" value="resume requirement" style="rounded=0;whiteSpace=wrap;html=1;" parent="1" vertex="1">
          <mxGeometry x="60" y="210" width="120" height="60" as="geometry" />
        </mxCell>
        <mxCell id="JsCZ4UhAlphagn-gwIwT-18" value="&lt;div&gt;cost estimation&lt;br&gt;&lt;/div&gt;" style="rounded=0;whiteSpace=wrap;html=1;" parent="1" vertex="1">
          <mxGeometry x="310" y="320" width="120" height="60" as="geometry" />
        </mxCell>
        <mxCell id="JsCZ4UhAlphagn-gwIwT-19" value="project scheduling" style="rounded=1;whiteSpace=wrap;html=1;" parent="1" vertex="1">
          <mxGeometry x="570" y="350" width="120" height="60" as="geometry" />
        </mxCell>
        <mxCell id="JsCZ4UhAlphagn-gwIwT-20" value="" style="endArrow=classic;html=1;rounded=0;exitX=-0.033;exitY=0.883;exitDx=0;exitDy=0;exitPerimeter=0;entryX=1;entryY=0;entryDx=0;entryDy=0;" parent="1" source="JsCZ4UhAlphagn-gwIwT-14" target="JsCZ4UhAlphagn-gwIwT-17" edge="1">
          <mxGeometry width="50" height="50" relative="1" as="geometry">
            <mxPoint x="380" y="260" as="sourcePoint" />
            <mxPoint x="190" y="200" as="targetPoint" />
          </mxGeometry>
        </mxCell>
        <mxCell id="JsCZ4UhAlphagn-gwIwT-22" value="" style="endArrow=classic;html=1;rounded=0;exitX=1;exitY=0.75;exitDx=0;exitDy=0;entryX=0;entryY=0.25;entryDx=0;entryDy=0;" parent="1" source="JsCZ4UhAlphagn-gwIwT-18" target="JsCZ4UhAlphagn-gwIwT-19" edge="1">
          <mxGeometry width="50" height="50" relative="1" as="geometry">
            <mxPoint x="380" y="260" as="sourcePoint" />
            <mxPoint x="540" y="330" as="targetPoint" />
          </mxGeometry>
        </mxCell>
        <mxCell id="JsCZ4UhAlphagn-gwIwT-23" value="" style="endArrow=classic;html=1;rounded=0;entryX=0.85;entryY=1.056;entryDx=0;entryDy=0;entryPerimeter=0;exitX=0;exitY=0.5;exitDx=0;exitDy=0;" parent="1" source="JsCZ4UhAlphagn-gwIwT-18" target="JsCZ4UhAlphagn-gwIwT-17" edge="1">
          <mxGeometry width="50" height="50" relative="1" as="geometry">
            <mxPoint x="380" y="260" as="sourcePoint" />
            <mxPoint x="430" y="210" as="targetPoint" />
          </mxGeometry>
        </mxCell>
        <mxCell id="JsCZ4UhAlphagn-gwIwT-24" value="" style="endArrow=classic;html=1;rounded=0;entryX=0;entryY=1;entryDx=0;entryDy=0;exitX=1;exitY=0.5;exitDx=0;exitDy=0;" parent="1" source="JsCZ4UhAlphagn-gwIwT-18" target="JsCZ4UhAlphagn-gwIwT-16" edge="1">
          <mxGeometry width="50" height="50" relative="1" as="geometry">
            <mxPoint x="380" y="260" as="sourcePoint" />
            <mxPoint x="430" y="210" as="targetPoint" />
          </mxGeometry>
        </mxCell>
        <mxCell id="JsCZ4UhAlphagn-gwIwT-25" value="" style="endArrow=classic;html=1;rounded=0;exitX=1;exitY=0.75;exitDx=0;exitDy=0;entryX=0.083;entryY=-0.022;entryDx=0;entryDy=0;entryPerimeter=0;" parent="1" source="JsCZ4UhAlphagn-gwIwT-14" target="JsCZ4UhAlphagn-gwIwT-16" edge="1">
          <mxGeometry width="50" height="50" relative="1" as="geometry">
            <mxPoint x="400" y="140" as="sourcePoint" />
            <mxPoint x="430" y="210" as="targetPoint" />
          </mxGeometry>
        </mxCell>
      </root>
    </mxGraphModel>
  </diagram>
  <diagram id="HqiuV79cLnqx0J_Q9NwL" name="User Diagram">
    <mxGraphModel dx="794" dy="454" grid="1" gridSize="10" guides="1" tooltips="1" connect="1" arrows="1" fold="1" page="1" pageScale="1" pageWidth="850" pageHeight="1100" math="0" shadow="0">
      <root>
        <mxCell id="0" />
        <mxCell id="1" parent="0" />
        <mxCell id="xUMij3T9kCkOeXepIS8S-3" value="&lt;b&gt;&lt;font style=&quot;font-size: 18px;&quot;&gt;Teacher&lt;/font&gt;&lt;/b&gt;" style="shape=umlActor;verticalLabelPosition=bottom;verticalAlign=top;html=1;" vertex="1" parent="1">
          <mxGeometry x="110" y="385" width="50" height="75" as="geometry" />
        </mxCell>
        <mxCell id="xUMij3T9kCkOeXepIS8S-6" value="&lt;b&gt;&lt;font style=&quot;font-size: 18px;&quot;&gt;Admin&lt;/font&gt;&lt;/b&gt;" style="shape=umlActor;verticalLabelPosition=bottom;verticalAlign=top;html=1;" vertex="1" parent="1">
          <mxGeometry x="770" y="150" width="80" height="100" as="geometry" />
        </mxCell>
        <mxCell id="xUMij3T9kCkOeXepIS8S-8" value="&lt;b&gt;&lt;font style=&quot;font-size: 18px;&quot;&gt;Student&lt;/font&gt;&lt;/b&gt;" style="shape=umlActor;verticalLabelPosition=bottom;verticalAlign=top;html=1;" vertex="1" parent="1">
          <mxGeometry x="100" y="60" width="50" height="60" as="geometry" />
        </mxCell>
        <mxCell id="xUMij3T9kCkOeXepIS8S-9" value="" style="verticalLabelPosition=bottom;verticalAlign=top;html=1;shape=mxgraph.basic.rect;fillColor2=none;strokeWidth=1;size=20;indent=5;" vertex="1" parent="1">
          <mxGeometry x="190" y="30" width="520" height="530" as="geometry" />
        </mxCell>
        <mxCell id="xUMij3T9kCkOeXepIS8S-15" value="&lt;font style=&quot;font-size: 18px;&quot;&gt;&lt;b&gt;School Management System&lt;/b&gt;&lt;/font&gt;" style="text;html=1;align=center;verticalAlign=middle;resizable=0;points=[];autosize=1;strokeColor=none;fillColor=none;" vertex="1" parent="1">
          <mxGeometry x="255" y="3" width="270" height="40" as="geometry" />
        </mxCell>
        <mxCell id="xUMij3T9kCkOeXepIS8S-16" value="enroll in a course" style="ellipse;whiteSpace=wrap;html=1;" vertex="1" parent="1">
          <mxGeometry x="200" y="43" width="165" height="25" as="geometry" />
        </mxCell>
        <mxCell id="xUMij3T9kCkOeXepIS8S-17" value="" style="endArrow=open;endFill=1;endSize=12;html=1;rounded=0;entryX=0;entryY=0.5;entryDx=0;entryDy=0;exitX=0.4;exitY=1.5;exitDx=0;exitDy=0;exitPerimeter=0;" edge="1" parent="1" source="xUMij3T9kCkOeXepIS8S-8" target="xUMij3T9kCkOeXepIS8S-23">
          <mxGeometry width="160" relative="1" as="geometry">
            <mxPoint x="30" y="220" as="sourcePoint" />
            <mxPoint x="190" y="220" as="targetPoint" />
          </mxGeometry>
        </mxCell>
        <mxCell id="xUMij3T9kCkOeXepIS8S-18" value="view course material" style="ellipse;whiteSpace=wrap;html=1;" vertex="1" parent="1">
          <mxGeometry x="200" y="75" width="165" height="30" as="geometry" />
        </mxCell>
        <mxCell id="xUMij3T9kCkOeXepIS8S-19" style="edgeStyle=orthogonalEdgeStyle;rounded=0;orthogonalLoop=1;jettySize=auto;html=1;exitX=0.5;exitY=1;exitDx=0;exitDy=0;" edge="1" parent="1" source="xUMij3T9kCkOeXepIS8S-16" target="xUMij3T9kCkOeXepIS8S-16">
          <mxGeometry relative="1" as="geometry" />
        </mxCell>
        <mxCell id="xUMij3T9kCkOeXepIS8S-20" value="view timetable" style="ellipse;whiteSpace=wrap;html=1;" vertex="1" parent="1">
          <mxGeometry x="200" y="110" width="165" height="25" as="geometry" />
        </mxCell>
        <mxCell id="xUMij3T9kCkOeXepIS8S-23" value="login/logout" style="ellipse;whiteSpace=wrap;html=1;" vertex="1" parent="1">
          <mxGeometry x="390" y="220" width="165" height="25" as="geometry" />
        </mxCell>
        <mxCell id="xUMij3T9kCkOeXepIS8S-24" value="update profile" style="ellipse;whiteSpace=wrap;html=1;" vertex="1" parent="1">
          <mxGeometry x="390" y="250" width="165" height="25" as="geometry" />
        </mxCell>
        <mxCell id="xUMij3T9kCkOeXepIS8S-25" value="change password" style="ellipse;whiteSpace=wrap;html=1;" vertex="1" parent="1">
          <mxGeometry x="390" y="282.5" width="165" height="25" as="geometry" />
        </mxCell>
        <mxCell id="xUMij3T9kCkOeXepIS8S-26" value="upload results" style="ellipse;whiteSpace=wrap;html=1;" vertex="1" parent="1">
          <mxGeometry x="410" y="440" width="165" height="25" as="geometry" />
        </mxCell>
        <mxCell id="xUMij3T9kCkOeXepIS8S-27" value="change passwords" style="ellipse;whiteSpace=wrap;html=1;" vertex="1" parent="1">
          <mxGeometry x="410" y="415" width="165" height="25" as="geometry" />
        </mxCell>
        <mxCell id="xUMij3T9kCkOeXepIS8S-28" value="upload course timetable" style="ellipse;whiteSpace=wrap;html=1;" vertex="1" parent="1">
          <mxGeometry x="410" y="470" width="165" height="25" as="geometry" />
        </mxCell>
        <mxCell id="xUMij3T9kCkOeXepIS8S-35" value="Text" style="text;html=1;align=center;verticalAlign=middle;resizable=0;points=[];autosize=1;strokeColor=none;fillColor=none;" vertex="1" parent="1">
          <mxGeometry x="645" y="458" width="50" height="30" as="geometry" />
        </mxCell>
        <mxCell id="xUMij3T9kCkOeXepIS8S-38" value="manage students" style="ellipse;whiteSpace=wrap;html=1;" vertex="1" parent="1">
          <mxGeometry x="510" y="62.5" width="165" height="25" as="geometry" />
        </mxCell>
        <mxCell id="xUMij3T9kCkOeXepIS8S-39" value="create timetable" style="ellipse;whiteSpace=wrap;html=1;" vertex="1" parent="1">
          <mxGeometry x="500" y="35" width="165" height="25" as="geometry" />
        </mxCell>
        <mxCell id="xUMij3T9kCkOeXepIS8S-40" value="manage students" style="ellipse;whiteSpace=wrap;html=1;" vertex="1" parent="1">
          <mxGeometry x="510" y="87.5" width="165" height="25" as="geometry" />
        </mxCell>
        <mxCell id="xUMij3T9kCkOeXepIS8S-41" value="manage courses" style="ellipse;whiteSpace=wrap;html=1;" vertex="1" parent="1">
          <mxGeometry x="520" y="115" width="165" height="25" as="geometry" />
        </mxCell>
        <mxCell id="xUMij3T9kCkOeXepIS8S-42" value="generate report" style="ellipse;whiteSpace=wrap;html=1;" vertex="1" parent="1">
          <mxGeometry x="520" y="140" width="165" height="25" as="geometry" />
        </mxCell>
        <mxCell id="xUMij3T9kCkOeXepIS8S-44" value="" style="endArrow=open;endFill=1;endSize=12;html=1;rounded=0;entryX=0;entryY=0.5;entryDx=0;entryDy=0;exitX=0.5;exitY=0.75;exitDx=0;exitDy=0;exitPerimeter=0;" edge="1" parent="1" source="xUMij3T9kCkOeXepIS8S-3" target="xUMij3T9kCkOeXepIS8S-27">
          <mxGeometry width="160" relative="1" as="geometry">
            <mxPoint x="65" y="307.5" as="sourcePoint" />
            <mxPoint x="225" y="307.5" as="targetPoint" />
          </mxGeometry>
        </mxCell>
        <mxCell id="xUMij3T9kCkOeXepIS8S-49" value="" style="endArrow=open;endFill=1;endSize=12;html=1;rounded=0;entryX=0;entryY=0.5;entryDx=0;entryDy=0;exitX=0.4;exitY=1.5;exitDx=0;exitDy=0;exitPerimeter=0;" edge="1" parent="1">
          <mxGeometry width="160" relative="1" as="geometry">
            <mxPoint x="120" y="180" as="sourcePoint" />
            <mxPoint x="390" y="263" as="targetPoint" />
          </mxGeometry>
        </mxCell>
        <mxCell id="xUMij3T9kCkOeXepIS8S-50" value="" style="endArrow=open;endFill=1;endSize=12;html=1;rounded=0;entryX=0;entryY=0.5;entryDx=0;entryDy=0;exitX=0.4;exitY=1.5;exitDx=0;exitDy=0;exitPerimeter=0;" edge="1" parent="1">
          <mxGeometry width="160" relative="1" as="geometry">
            <mxPoint x="120" y="210" as="sourcePoint" />
            <mxPoint x="390" y="293" as="targetPoint" />
          </mxGeometry>
        </mxCell>
        <mxCell id="xUMij3T9kCkOeXepIS8S-59" value="" style="endArrow=open;endFill=1;endSize=12;html=1;rounded=0;entryX=0;entryY=0.5;entryDx=0;entryDy=0;exitX=1;exitY=1;exitDx=0;exitDy=0;exitPerimeter=0;" edge="1" parent="1" source="xUMij3T9kCkOeXepIS8S-8" target="xUMij3T9kCkOeXepIS8S-20">
          <mxGeometry width="160" relative="1" as="geometry">
            <mxPoint x="160" y="140" as="sourcePoint" />
            <mxPoint x="320" y="140" as="targetPoint" />
          </mxGeometry>
        </mxCell>
        <mxCell id="xUMij3T9kCkOeXepIS8S-61" value="" style="endArrow=open;endFill=1;endSize=12;html=1;rounded=0;exitX=0.587;exitY=0.622;exitDx=0;exitDy=0;exitPerimeter=0;" edge="1" parent="1" source="xUMij3T9kCkOeXepIS8S-8" target="xUMij3T9kCkOeXepIS8S-18">
          <mxGeometry width="160" relative="1" as="geometry">
            <mxPoint x="140" y="100" as="sourcePoint" />
            <mxPoint x="260" y="100" as="targetPoint" />
          </mxGeometry>
        </mxCell>
        <mxCell id="xUMij3T9kCkOeXepIS8S-62" value="" style="endArrow=open;endFill=1;endSize=12;html=1;rounded=0;exitX=1;exitY=0.3333333333333333;exitDx=0;exitDy=0;exitPerimeter=0;entryX=0;entryY=0.5;entryDx=0;entryDy=0;" edge="1" parent="1" source="xUMij3T9kCkOeXepIS8S-8" target="xUMij3T9kCkOeXepIS8S-16">
          <mxGeometry width="160" relative="1" as="geometry">
            <mxPoint x="100" y="70" as="sourcePoint" />
            <mxPoint x="260" y="70" as="targetPoint" />
          </mxGeometry>
        </mxCell>
        <mxCell id="xUMij3T9kCkOeXepIS8S-63" value="" style="endArrow=open;endFill=1;endSize=12;html=1;rounded=0;entryX=1;entryY=0.5;entryDx=0;entryDy=0;exitX=0.5;exitY=0.4;exitDx=0;exitDy=0;exitPerimeter=0;" edge="1" parent="1" source="xUMij3T9kCkOeXepIS8S-6" target="xUMij3T9kCkOeXepIS8S-40">
          <mxGeometry width="160" relative="1" as="geometry">
            <mxPoint x="690" y="80" as="sourcePoint" />
            <mxPoint x="850" y="80" as="targetPoint" />
          </mxGeometry>
        </mxCell>
        <mxCell id="xUMij3T9kCkOeXepIS8S-64" value="" style="endArrow=open;endFill=1;endSize=12;html=1;rounded=0;entryX=1;entryY=0.5;entryDx=0;entryDy=0;exitX=0.5;exitY=0.5;exitDx=0;exitDy=0;exitPerimeter=0;" edge="1" parent="1" source="xUMij3T9kCkOeXepIS8S-6" target="xUMij3T9kCkOeXepIS8S-41">
          <mxGeometry width="160" relative="1" as="geometry">
            <mxPoint x="763" y="196" as="sourcePoint" />
            <mxPoint x="685" y="110" as="targetPoint" />
          </mxGeometry>
        </mxCell>
        <mxCell id="xUMij3T9kCkOeXepIS8S-65" value="" style="endArrow=open;endFill=1;endSize=12;html=1;rounded=0;exitX=0.307;exitY=0.256;exitDx=0;exitDy=0;exitPerimeter=0;entryX=1;entryY=0.5;entryDx=0;entryDy=0;" edge="1" parent="1" source="xUMij3T9kCkOeXepIS8S-6" target="xUMij3T9kCkOeXepIS8S-38">
          <mxGeometry width="160" relative="1" as="geometry">
            <mxPoint x="773" y="206" as="sourcePoint" />
            <mxPoint x="695" y="120" as="targetPoint" />
          </mxGeometry>
        </mxCell>
        <mxCell id="xUMij3T9kCkOeXepIS8S-66" value="" style="endArrow=open;endFill=1;endSize=12;html=1;rounded=0;entryX=1;entryY=0.5;entryDx=0;entryDy=0;exitX=0.433;exitY=0.673;exitDx=0;exitDy=0;exitPerimeter=0;" edge="1" parent="1" source="xUMij3T9kCkOeXepIS8S-6" target="xUMij3T9kCkOeXepIS8S-42">
          <mxGeometry width="160" relative="1" as="geometry">
            <mxPoint x="783" y="216" as="sourcePoint" />
            <mxPoint x="705" y="130" as="targetPoint" />
          </mxGeometry>
        </mxCell>
        <mxCell id="xUMij3T9kCkOeXepIS8S-67" value="" style="endArrow=open;endFill=1;endSize=12;html=1;rounded=0;exitX=0.25;exitY=0.1;exitDx=0;exitDy=0;exitPerimeter=0;entryX=1;entryY=0.5;entryDx=0;entryDy=0;" edge="1" parent="1" target="xUMij3T9kCkOeXepIS8S-39">
          <mxGeometry width="160" relative="1" as="geometry">
            <mxPoint x="793" y="166" as="sourcePoint" />
            <mxPoint x="690" y="90" as="targetPoint" />
          </mxGeometry>
        </mxCell>
        <mxCell id="xUMij3T9kCkOeXepIS8S-68" value="" style="endArrow=open;endFill=1;endSize=12;html=1;rounded=0;entryX=1;entryY=0.5;entryDx=0;entryDy=0;exitX=0.342;exitY=0.747;exitDx=0;exitDy=0;exitPerimeter=0;" edge="1" parent="1" source="xUMij3T9kCkOeXepIS8S-6" target="xUMij3T9kCkOeXepIS8S-23">
          <mxGeometry width="160" relative="1" as="geometry">
            <mxPoint x="790" y="233" as="sourcePoint" />
            <mxPoint x="695" y="163" as="targetPoint" />
          </mxGeometry>
        </mxCell>
        <mxCell id="xUMij3T9kCkOeXepIS8S-69" value="" style="endArrow=open;endFill=1;endSize=12;html=1;rounded=0;entryX=1;entryY=0.5;entryDx=0;entryDy=0;exitX=0.233;exitY=0.82;exitDx=0;exitDy=0;exitPerimeter=0;" edge="1" parent="1" source="xUMij3T9kCkOeXepIS8S-6" target="xUMij3T9kCkOeXepIS8S-24">
          <mxGeometry width="160" relative="1" as="geometry">
            <mxPoint x="790" y="240" as="sourcePoint" />
            <mxPoint x="565" y="243" as="targetPoint" />
          </mxGeometry>
        </mxCell>
        <mxCell id="xUMij3T9kCkOeXepIS8S-70" value="" style="endArrow=open;endFill=1;endSize=12;html=1;rounded=0;entryX=1;entryY=0.5;entryDx=0;entryDy=0;" edge="1" parent="1" target="xUMij3T9kCkOeXepIS8S-25">
          <mxGeometry width="160" relative="1" as="geometry">
            <mxPoint x="770" y="250" as="sourcePoint" />
            <mxPoint x="570" y="280" as="targetPoint" />
          </mxGeometry>
        </mxCell>
        <mxCell id="xUMij3T9kCkOeXepIS8S-72" value="" style="endArrow=open;endFill=1;endSize=12;html=1;rounded=0;entryX=0;entryY=0.5;entryDx=0;entryDy=0;exitX=0.813;exitY=0.84;exitDx=0;exitDy=0;exitPerimeter=0;" edge="1" parent="1" source="xUMij3T9kCkOeXepIS8S-3" target="xUMij3T9kCkOeXepIS8S-26">
          <mxGeometry width="160" relative="1" as="geometry">
            <mxPoint x="150" y="440" as="sourcePoint" />
            <mxPoint x="420" y="438" as="targetPoint" />
          </mxGeometry>
        </mxCell>
        <mxCell id="xUMij3T9kCkOeXepIS8S-73" value="" style="endArrow=open;endFill=1;endSize=12;html=1;rounded=0;entryX=0;entryY=0.5;entryDx=0;entryDy=0;exitX=0.867;exitY=0.939;exitDx=0;exitDy=0;exitPerimeter=0;" edge="1" parent="1" source="xUMij3T9kCkOeXepIS8S-3" target="xUMij3T9kCkOeXepIS8S-28">
          <mxGeometry width="160" relative="1" as="geometry">
            <mxPoint x="160" y="440" as="sourcePoint" />
            <mxPoint x="427" y="465" as="targetPoint" />
          </mxGeometry>
        </mxCell>
        <mxCell id="xUMij3T9kCkOeXepIS8S-76" value="" style="endArrow=open;endFill=1;endSize=12;html=1;rounded=0;exitX=0.8;exitY=0.2;exitDx=0;exitDy=0;exitPerimeter=0;entryX=0;entryY=1;entryDx=0;entryDy=0;" edge="1" parent="1" source="xUMij3T9kCkOeXepIS8S-3" target="xUMij3T9kCkOeXepIS8S-23">
          <mxGeometry width="160" relative="1" as="geometry">
            <mxPoint x="240" y="360" as="sourcePoint" />
            <mxPoint x="400" y="360" as="targetPoint" />
            <Array as="points">
              <mxPoint x="380" y="330" />
            </Array>
          </mxGeometry>
        </mxCell>
        <mxCell id="xUMij3T9kCkOeXepIS8S-77" value="" style="endArrow=open;endFill=1;endSize=12;html=1;rounded=0;exitX=0.5;exitY=0.5;exitDx=0;exitDy=0;exitPerimeter=0;" edge="1" parent="1" source="xUMij3T9kCkOeXepIS8S-3">
          <mxGeometry width="160" relative="1" as="geometry">
            <mxPoint x="250" y="370" as="sourcePoint" />
            <mxPoint x="424" y="270" as="targetPoint" />
            <Array as="points">
              <mxPoint x="380" y="370" />
            </Array>
          </mxGeometry>
        </mxCell>
        <mxCell id="xUMij3T9kCkOeXepIS8S-78" value="" style="endArrow=open;endFill=1;endSize=12;html=1;rounded=0;exitX=0.6;exitY=0.6;exitDx=0;exitDy=0;exitPerimeter=0;" edge="1" parent="1" source="xUMij3T9kCkOeXepIS8S-3" target="xUMij3T9kCkOeXepIS8S-25">
          <mxGeometry width="160" relative="1" as="geometry">
            <mxPoint x="260" y="380" as="sourcePoint" />
            <mxPoint x="420" y="380" as="targetPoint" />
            <Array as="points">
              <mxPoint x="380" y="400" />
            </Array>
          </mxGeometry>
        </mxCell>
      </root>
    </mxGraphModel>
  </diagram>
  <diagram id="3FRDmBE7EwvqGyotDR59" name="Login Form">
    <mxGraphModel dx="780" dy="504" grid="1" gridSize="10" guides="1" tooltips="1" connect="1" arrows="1" fold="1" page="1" pageScale="1" pageWidth="850" pageHeight="1100" math="0" shadow="0">
      <root>
        <mxCell id="0" />
        <mxCell id="1" parent="0" />
        <mxCell id="zJPOwivTjDxBDg9tZL1S-1" value="" style="whiteSpace=wrap;html=1;aspect=fixed;fillColor=#994C00;" parent="1" vertex="1">
          <mxGeometry x="260" y="80" width="320" height="320" as="geometry" />
        </mxCell>
        <mxCell id="zJPOwivTjDxBDg9tZL1S-2" value="&lt;font color=&quot;#1a1a1a&quot; style=&quot;font-size: 14px; background-color: rgb(255, 255, 255);&quot;&gt;Login Form&lt;/font&gt;" style="text;html=1;align=center;verticalAlign=middle;resizable=0;points=[];autosize=1;strokeColor=none;fillColor=none;" parent="1" vertex="1">
          <mxGeometry x="370" y="50" width="90" height="30" as="geometry" />
        </mxCell>
        <mxCell id="zJPOwivTjDxBDg9tZL1S-4" value="Enter email or username&amp;nbsp;" style="rounded=1;whiteSpace=wrap;html=1;" parent="1" vertex="1">
          <mxGeometry x="277" y="100" width="270" height="30" as="geometry" />
        </mxCell>
        <mxCell id="zJPOwivTjDxBDg9tZL1S-6" value="Enter password" style="rounded=1;whiteSpace=wrap;html=1;" parent="1" vertex="1">
          <mxGeometry x="277" y="170" width="273" height="30" as="geometry" />
        </mxCell>
        <mxCell id="v6FN15_UHA58ae1FW0s0-1" value="&lt;u&gt;Forgot password?&lt;/u&gt;" style="text;html=1;align=center;verticalAlign=middle;whiteSpace=wrap;rounded=0;" vertex="1" parent="1">
          <mxGeometry x="430" y="210" width="120" height="30" as="geometry" />
        </mxCell>
        <mxCell id="v6FN15_UHA58ae1FW0s0-7" value="Login" style="rounded=1;whiteSpace=wrap;html=1;" vertex="1" parent="1">
          <mxGeometry x="360" y="260" width="120" height="30" as="geometry" />
        </mxCell>
      </root>
    </mxGraphModel>
  </diagram>
  <diagram id="4RwlT_V4t-TYYNT-EBnG" name="signup">
    <mxGraphModel dx="1034" dy="519" grid="1" gridSize="10" guides="1" tooltips="1" connect="1" arrows="1" fold="1" page="1" pageScale="1" pageWidth="850" pageHeight="1100" math="0" shadow="0">
      <root>
        <mxCell id="0" />
        <mxCell id="1" parent="0" />
        <mxCell id="aGwvHqf6_ounXU4mXUGP-2" value="&lt;b&gt;&lt;font style=&quot;font-size: 14px;&quot;&gt;School Management System&lt;/font&gt;&lt;/b&gt;" style="text;html=1;align=center;verticalAlign=middle;resizable=0;points=[];autosize=1;strokeColor=none;fillColor=none;" parent="1" vertex="1">
          <mxGeometry x="310" y="50" width="210" height="30" as="geometry" />
        </mxCell>
        <mxCell id="aGwvHqf6_ounXU4mXUGP-3" value="" style="whiteSpace=wrap;html=1;" parent="1" vertex="1">
          <mxGeometry x="150" y="80" width="560" height="410" as="geometry" />
        </mxCell>
        <mxCell id="3c1hnoXonmTPC4LUBXtV-2" value="" style="line;strokeWidth=2;html=1;" parent="1" vertex="1">
          <mxGeometry x="300" y="140" width="300" height="10" as="geometry" />
        </mxCell>
        <mxCell id="3c1hnoXonmTPC4LUBXtV-10" value="Enter email eg. ama23@gmail.com" style="text;html=1;align=center;verticalAlign=middle;whiteSpace=wrap;rounded=0;" parent="1" vertex="1">
          <mxGeometry x="300" y="120" width="230" height="20" as="geometry" />
        </mxCell>
        <mxCell id="3c1hnoXonmTPC4LUBXtV-11" value="" style="line;strokeWidth=2;html=1;" parent="1" vertex="1">
          <mxGeometry x="300" y="180" width="300" height="10" as="geometry" />
        </mxCell>
        <mxCell id="3c1hnoXonmTPC4LUBXtV-12" value="Enter role" style="text;html=1;align=center;verticalAlign=middle;whiteSpace=wrap;rounded=0;" parent="1" vertex="1">
          <mxGeometry x="265" y="284.5" width="165" height="20" as="geometry" />
        </mxCell>
        <mxCell id="3c1hnoXonmTPC4LUBXtV-13" value="Confirm Password" style="text;html=1;align=center;verticalAlign=middle;whiteSpace=wrap;rounded=0;" parent="1" vertex="1">
          <mxGeometry x="290" y="240" width="160" height="20" as="geometry" />
        </mxCell>
        <mxCell id="3c1hnoXonmTPC4LUBXtV-14" value="Password" style="text;html=1;align=center;verticalAlign=middle;whiteSpace=wrap;rounded=0;" parent="1" vertex="1">
          <mxGeometry x="270" y="200" width="150" height="20" as="geometry" />
        </mxCell>
        <mxCell id="3c1hnoXonmTPC4LUBXtV-15" value="Enter full name" style="text;html=1;align=center;verticalAlign=middle;whiteSpace=wrap;rounded=0;" parent="1" vertex="1">
          <mxGeometry x="240" y="165" width="240" height="20" as="geometry" />
        </mxCell>
        <mxCell id="3c1hnoXonmTPC4LUBXtV-16" value="" style="line;strokeWidth=2;html=1;" parent="1" vertex="1">
          <mxGeometry x="300" y="220" width="300" height="10" as="geometry" />
        </mxCell>
        <mxCell id="3c1hnoXonmTPC4LUBXtV-18" value="" style="line;strokeWidth=2;html=1;" parent="1" vertex="1">
          <mxGeometry x="300" y="260" width="300" height="4.5" as="geometry" />
        </mxCell>
        <mxCell id="3c1hnoXonmTPC4LUBXtV-19" value="" style="line;strokeWidth=2;html=1;" parent="1" vertex="1">
          <mxGeometry x="300" y="300" width="300" height="4.5" as="geometry" />
        </mxCell>
        <mxCell id="3c1hnoXonmTPC4LUBXtV-21" value="" style="shape=actor;whiteSpace=wrap;html=1;fillColor=#190033;" parent="1" vertex="1">
          <mxGeometry x="270" y="160" width="20" height="25" as="geometry" />
        </mxCell>
        <mxCell id="3c1hnoXonmTPC4LUBXtV-25" value="" style="dashed=0;outlineConnect=0;html=1;align=center;labelPosition=center;verticalLabelPosition=bottom;verticalAlign=top;shape=mxgraph.weblogos.buffer;fillColor=#221F1F;strokeColor=none" parent="1" vertex="1">
          <mxGeometry x="270" y="280" width="30" height="24.5" as="geometry" />
        </mxCell>
        <mxCell id="3c1hnoXonmTPC4LUBXtV-26" value="" style="sketch=0;pointerEvents=1;shadow=0;dashed=0;html=1;strokeColor=none;fillColor=#000000;labelPosition=center;verticalLabelPosition=bottom;verticalAlign=top;outlineConnect=0;align=center;shape=mxgraph.office.security.lock_protected;" parent="1" vertex="1">
          <mxGeometry x="270" y="200" width="20" height="28.25" as="geometry" />
        </mxCell>
        <mxCell id="3c1hnoXonmTPC4LUBXtV-28" value="" style="shape=message;html=1;html=1;outlineConnect=0;labelPosition=center;verticalLabelPosition=bottom;align=center;verticalAlign=top;fillColor=#2d434d;" parent="1" vertex="1">
          <mxGeometry x="265" y="120" width="30" height="20" as="geometry" />
        </mxCell>
        <mxCell id="3c1hnoXonmTPC4LUBXtV-33" value="" style="strokeWidth=2;html=1;shape=mxgraph.flowchart.merge_or_storage;whiteSpace=wrap;fillColor=#130101;" parent="1" vertex="1">
          <mxGeometry x="560" y="290" width="10" height="4.5" as="geometry" />
        </mxCell>
        <mxCell id="3c1hnoXonmTPC4LUBXtV-40" value="" style="verticalLabelPosition=bottom;verticalAlign=top;html=1;shape=mxgraph.basic.rect;fillColor2=none;strokeWidth=2;size=20;indent=5;strokeColor=#1d0202;" parent="1" vertex="1">
          <mxGeometry x="380" y="380" width="120" height="20" as="geometry" />
        </mxCell>
        <mxCell id="3c1hnoXonmTPC4LUBXtV-41" value="Sign Up" style="text;html=1;align=center;verticalAlign=middle;whiteSpace=wrap;rounded=0;" parent="1" vertex="1">
          <mxGeometry x="410" y="390" width="60" as="geometry" />
        </mxCell>
        <mxCell id="3c1hnoXonmTPC4LUBXtV-43" value="&lt;b&gt;Already have an account? Login&lt;/b&gt;" style="text;html=1;align=center;verticalAlign=middle;whiteSpace=wrap;rounded=0;" parent="1" vertex="1">
          <mxGeometry x="500" y="400" width="190" height="30" as="geometry" />
        </mxCell>
      </root>
    </mxGraphModel>
  </diagram>
</mxfile>
